# xmcd CD database file
#
# Track frame offsets:
#	150
#	18072
#	34290
#	51260
#	68828
#	86136
#	107264
#	130678
#	149801
#	171640
#	186192
#
# Disc length: 2715 seconds
#
# Revision: 0
# Processed by: cddbd v1.4PL0 Copyright (c) Steve Scherf et al.
# Submitted via: CDex 1.50beta9
#
DISCID=9c0a990b
DTITLE=Carolyn Dawn Johnson - Room with a view
DYEAR=2002
DGENRE=Country
TTITLE0=Georgia
TTITLE1=Just another girl
TTITLE2=I'll think of you that way
TTITLE3=Love is always worth the ache
TTITLE4=Complicated
TTITLE5=I don't want you to go
TTITLE6=You are
TTITLE7=Masterpiece
TTITLE8=Little bit of this , little bit of that
TTITLE9=Day closer to you
TTITLE10=Room with a view
EXTD=YEAR: 2002
EXTT0=
EXTT1=
EXTT2=
EXTT3=
EXTT4=
EXTT5=
EXTT6=
EXTT7=
EXTT8=
EXTT9=
EXTT10=
PLAYORDER=
